# xmcd
#
# Track frame offsets:
#	150
#	12143
#	33793
#	45361
#
# Disc length: 958 seconds
#
# Revision: 1
# Processed by: cddbd v1.5.2PL0 Copyright (c) Steve Scherf et al.
# Submitted via: audiograbber 1.81.03
#
DISCID=1d03bc04
DTITLE=No Circus - No Circus
DYEAR=2006
DGENRE=Blues
TTITLE0=No Circus
TTITLE1=One Of These Days
TTITLE2=Feel
TTITLE3=Continued
EXTD=
EXTT0=
EXTT1=
EXTT2=
EXTT3=
PLAYORDER=
